<?xml version="1.0" standalone="no"?><!DOCTYPE svg PUBLIC "-//W3C//DTD SVG 1.1//EN" "http://www.w3.org/Graphics/SVG/1.1/DTD/svg11.dtd"><svg t="1644810287920" class="icon" viewBox="0 0 1433 1024" version="1.1" xmlns="http://www.w3.org/2000/svg" p-id="2298" xmlns:xlink="http://www.w3.org/1999/xlink" width="279.8828125" height="200"><defs><style type="text/css"></style></defs><path d="M1391.9232 336.384h-65.2288V116.3264a42.1888 42.1888 0 0 0-41.6768-42.496H1023.488V42.496A42.1888 42.1888 0 0 0 981.8112 0H455.68a42.1888 42.1888 0 0 0-41.6768 42.496v31.3344H152.576a42.1888 42.1888 0 0 0-41.6768 42.496v108.7488S0 222.208 0 335.1552v228.5568C0 676.864 110.8992 673.792 110.8992 673.792v107.8272c0 23.552 18.6368 42.496 41.6768 42.496h231.1168a42.1888 42.1888 0 0 0-41.6768 42.5984v83.2512c0 23.552 18.6368 42.496 41.6768 42.496h670.208a42.1888 42.1888 0 0 0 41.7792-42.496v-83.2512a42.1888 42.1888 0 0 0-41.7792-42.5984h231.1168a42.1888 42.1888 0 0 0 41.6768-42.496v-220.16h65.2288A42.1888 42.1888 0 0 0 1433.6 519.0656V378.9824a42.1888 42.1888 0 0 0-41.6768-42.5984zM480.8704 720.5888V103.6288c0-19.6608 14.5408-35.5328 32.5632-35.5328h410.7264c18.0224 0 32.5632 15.872 32.5632 35.5328v720.4864H480.8704V720.5888z m-266.1376 35.5328c-20.48 0-37.0688-15.6672-37.0688-34.816V176.64c0-19.1488 16.5888-34.816 37.0688-34.816h199.3728V756.1216H214.7328z m814.08 168.3456H408.8832v-34.0992h620.1344v34.0992z m231.1168-550.912a43.7248 43.7248 0 0 0-0.3072 5.4272v139.9808c0 1.8432 0.1024 3.6864 0.3072 5.4272v196.9152c0 19.2512-16.5888 34.816-37.0688 34.816H1023.488V141.824h199.3728c20.48 0 37.0688 15.6672 37.0688 34.816v196.9152z m101.376 112.64h-34.6112v-74.3424h34.6112v74.24z" fill="#1296db" p-id="2299"></path><path d="M825.2416 330.752H697.5488L551.424 516.7104l159.744 2.6624-71.7824 142.336L882.176 447.488H724.992z" fill="#1296db" p-id="2300"></path></svg>