<?xml version="1.0" standalone="no"?><!DOCTYPE svg PUBLIC "-//W3C//DTD SVG 1.1//EN" "http://www.w3.org/Graphics/SVG/1.1/DTD/svg11.dtd"><svg t="1644807588275" class="icon" viewBox="0 0 1024 1024" version="1.1" xmlns="http://www.w3.org/2000/svg" p-id="5657" xmlns:xlink="http://www.w3.org/1999/xlink" width="200" height="200"><defs><style type="text/css"></style></defs><path d="M926.47619 853.333333H97.52381c-53.638095 0-97.52381-43.885714-97.52381-97.523809V414.47619c0-53.638095 43.885714-97.52381 97.52381-97.523809h828.95238c53.638095 0 97.52381 43.885714 97.52381 97.523809v341.333334c0 53.638095-43.885714 97.52381-97.52381 97.523809z" fill="#8F65FF" p-id="5658"></path><path d="M207.238095 621.714286h-73.142857c-19.504762 0-36.571429-17.066667-36.571428-36.571429s17.066667-36.571429 36.571428-36.571428h73.142857c19.504762 0 36.571429 17.066667 36.571429 36.571428s-17.066667 36.571429-36.571429 36.571429zM402.285714 621.714286h-73.142857c-19.504762 0-36.571429-17.066667-36.571428-36.571429s17.066667-36.571429 36.571428-36.571428h73.142857c19.504762 0 36.571429 17.066667 36.571429 36.571428s-17.066667 36.571429-36.571429 36.571429z" fill="#FFFFFF" p-id="5659"></path><path d="M195.047619 975.238095c-26.819048 0-48.761905-21.942857-48.761905-48.761905v-73.142857h97.52381v73.142857c0 26.819048-21.942857 48.761905-48.761905 48.761905zM828.952381 975.238095c-26.819048 0-48.761905-21.942857-48.761905-48.761905v-73.142857h97.52381v73.142857c0 26.819048-21.942857 48.761905-48.761905 48.761905zM877.714286 316.952381h-97.52381V97.52381c0-26.819048 21.942857-48.761905 48.761905-48.761905s48.761905 21.942857 48.761905 48.761905v219.428571z" fill="#C7B2FF" p-id="5660"></path></svg>