<?xml version="1.0" standalone="no"?><!DOCTYPE svg PUBLIC "-//W3C//DTD SVG 1.1//EN" "http://www.w3.org/Graphics/SVG/1.1/DTD/svg11.dtd"><svg t="1644807580544" class="icon" viewBox="0 0 1024 1024" version="1.1" xmlns="http://www.w3.org/2000/svg" p-id="5490" xmlns:xlink="http://www.w3.org/1999/xlink" width="200" height="200"><defs><style type="text/css"></style></defs><path d="M524.3 465.5m-231.2 0a231.2 231.2 0 1 0 462.4 0 231.2 231.2 0 1 0-462.4 0Z" fill="#B6F5FF" p-id="5491"></path><path d="M252.653 196.114l13.657-3.079 30.038 133.254-13.657 3.078zM327.476 331.852l135.44-85.184 7.454 11.85-135.44 85.185zM243.19 490.913l38.742-96.946 13 5.196-38.742 96.946zM188.01 753.949l28.425-166.288 13.8 2.359-28.426 166.288z" fill="#49A3FE" p-id="5492"></path><path d="M236.08 785.38l151.701-58.815 5.061 13.053-151.701 58.816z" fill="#0F13AE" p-id="5493"></path><path d="M477.565 741.732l4.665-13.2 122.2 43.182-4.665 13.2zM673.031 782.27l72.08-10.236 1.968 13.862L675 796.132zM646.864 753.245l46.144-110.447 12.918 5.397-46.145 110.447zM622.616 377.638l198.876-152.49 8.519 11.11-198.876 152.49zM218.4 764.405l212.31-211.95 9.89 9.908-212.31 211.95z" fill="#49A3FE" p-id="5494"></path><path d="M834.7 213.7m-50.3 0a50.3 50.3 0 1 0 100.6 0 50.3 50.3 0 1 0-100.6 0Z" fill="#B6F5FF" p-id="5495"></path><path d="M834.7 271.1c-31.6 0-57.3-25.7-57.3-57.3 0-31.6 25.7-57.3 57.3-57.3s57.3 25.7 57.3 57.3c0 31.5-25.7 57.3-57.3 57.3z m0-100.7c-23.9 0-43.3 19.4-43.3 43.3s19.4 43.3 43.3 43.3 43.3-19.4 43.3-43.3-19.5-43.3-43.3-43.3z" fill="#0F13AE" p-id="5496"></path><path d="M188.3 805.5m-50.3 0a50.3 50.3 0 1 0 100.6 0 50.3 50.3 0 1 0-100.6 0Z" fill="#B6F5FF" p-id="5497"></path><path d="M188.3 862.8c-31.6 0-57.3-25.7-57.3-57.3s25.7-57.3 57.3-57.3 57.3 25.7 57.3 57.3-25.7 57.3-57.3 57.3z m0-100.7c-23.9 0-43.3 19.4-43.3 43.3s19.4 43.3 43.3 43.3 43.3-19.4 43.3-43.3-19.4-43.3-43.3-43.3zM227.4 595.9c-31.6 0-57.3-25.7-57.3-57.3 0-31.6 25.7-57.3 57.3-57.3s57.3 25.7 57.3 57.3c0 31.6-25.7 57.3-57.3 57.3z m0-100.7c-23.9 0-43.3 19.4-43.3 43.3s19.4 43.3 43.3 43.3 43.3-19.4 43.3-43.3c0-23.8-19.4-43.3-43.3-43.3zM435.6 768.6c-31.6 0-57.3-25.7-57.3-57.3S404 654 435.6 654s57.3 25.7 57.3 57.3-25.7 57.3-57.3 57.3z m0-100.7c-23.9 0-43.3 19.4-43.3 43.3s19.4 43.3 43.3 43.3 43.3-19.4 43.3-43.3-19.4-43.3-43.3-43.3z" fill="#0F13AE" p-id="5498"></path><path d="M636.5 832.7c-10.9 0-21.1-4.2-28.9-12-7.7-7.7-12-18-12-28.9s4.2-21.1 12-28.9c15.9-15.9 41.8-15.9 57.7 0 15.9 15.9 15.9 41.8 0 57.7-7.7 7.9-17.9 12.1-28.8 12.1z m0-67.6c-6.9 0-13.7 2.6-19 7.8-5.1 5.1-7.9 11.8-7.9 19s2.8 13.9 7.9 19c5.1 5.1 11.8 7.9 19 7.9 7.2 0 13.9-2.8 19-7.9 10.5-10.5 10.5-27.5 0-37.9-5.3-5.3-12.1-7.9-19-7.9zM303 400.2c-10.4 0-20.9-4-28.9-11.9-15.9-15.9-15.9-41.8 0-57.7 15.9-15.9 41.8-15.9 57.7 0 15.9 15.9 15.9 41.8 0 57.7-7.9 7.9-18.3 11.9-28.8 11.9z m-18.9-21.8c10.5 10.5 27.5 10.5 37.9 0 10.5-10.5 10.5-27.5 0-37.9-10.5-10.5-27.5-10.4-37.9 0-10.5 10.4-10.5 27.4 0 37.9zM252.2 204.2c-10.4 0-20.9-4-28.9-11.9-15.9-15.9-15.9-41.8 0-57.7 15.9-15.9 41.8-15.9 57.7 0 15.9 15.9 15.9 41.8 0 57.7-7.9 7.9-18.4 11.9-28.8 11.9z m-19-21.9c10.5 10.5 27.5 10.5 37.9 0 10.5-10.5 10.5-27.5 0-37.9-10.5-10.5-27.5-10.5-37.9 0-10.4 10.5-10.4 27.5 0 37.9zM779.6 816.2c-10.4 0-20.9-4-28.9-11.9-15.9-15.9-15.9-41.8 0-57.7 15.9-15.9 41.8-15.9 57.7 0 15.9 15.9 15.9 41.8 0 57.7-7.9 7.9-18.4 11.9-28.8 11.9z m-19-21.8c10.5 10.5 27.5 10.5 37.9 0 10.5-10.5 10.5-27.5 0-37.9-10.5-10.4-27.5-10.5-37.9 0-10.4 10.4-10.4 27.4 0 37.9zM710.2 654.1c-22.5 0-40.8-18.3-40.8-40.8s18.3-40.8 40.8-40.8 40.8 18.3 40.8 40.8-18.3 40.8-40.8 40.8z m0-67.7c-14.8 0-26.8 12-26.8 26.8s12 26.8 26.8 26.8 26.8-12 26.8-26.8-12.1-26.8-26.8-26.8zM499 270.3c-10.4 0-20.9-4-28.9-11.9-15.9-15.9-15.9-41.8 0-57.7 15.9-15.9 41.8-15.9 57.7 0 15.9 15.9 15.9 41.8 0 57.7-7.9 7.9-18.3 11.9-28.8 11.9z m-18.9-21.8c10.5 10.5 27.5 10.5 37.9 0 10.5-10.5 10.5-27.5 0-37.9-10.5-10.5-27.5-10.5-37.9 0-10.5 10.4-10.5 27.4 0 37.9z" fill="#49A3FE" p-id="5499"></path><path d="M524.3 600.3c-74.3 0-134.8-60.5-134.8-134.8S450 330.7 524.3 330.7c74.3 0 134.8 60.5 134.8 134.8s-60.4 134.8-134.8 134.8z m0-255.6c-66.6 0-120.8 54.2-120.8 120.8s54.2 120.8 120.8 120.8 120.8-54.2 120.8-120.8-54.2-120.8-120.8-120.8z" fill="#0F13AE" p-id="5500"></path><path d="M524.3 465.5m-46 0a46 46 0 1 0 92 0 46 46 0 1 0-92 0Z" fill="#B6F5FF" p-id="5501"></path><path d="M524.3 518.5c-29.2 0-53-23.8-53-53s23.8-53 53-53 53 23.8 53 53c0.1 29.2-23.7 53-53 53z m0-92.1c-21.5 0-39 17.5-39 39s17.5 39 39 39 39-17.5 39-39c0.1-21.4-17.4-39-39-39z" fill="#0F13AE" p-id="5502"></path><path d="M706 384.6l-9.5-11.9" fill="#B6F5FF" p-id="5503"></path><path d="M691.076 377.121l10.95-8.723 9.41 11.81-10.951 8.724z" fill="#0F13AE" p-id="5504"></path><path d="M749.9 349.6l-9.5-11.9" fill="#B6F5FF" p-id="5505"></path><path d="M734.889 342.12l10.949-8.723 9.409 11.81-10.95 8.723z" fill="#0F13AE" p-id="5506"></path><path d="M793.7 314.6l-9.4-11.8" fill="#B6F5FF" p-id="5507"></path><path d="M778.833 307.122l10.95-8.723 9.41 11.811-10.951 8.723z" fill="#0F13AE" p-id="5508"></path><path d="M653.6 316l-9.4-11.8" fill="#B6F5FF" p-id="5509"></path><path d="M638.661 308.495l10.95-8.723 9.409 11.81-10.95 8.723z" fill="#0F13AE" p-id="5510"></path><path d="M697.5 281l-9.4-11.8" fill="#B6F5FF" p-id="5511"></path><path d="M682.66 273.576l10.95-8.723 9.41 11.811-10.951 8.723z" fill="#0F13AE" p-id="5512"></path><path d="M741.4 246.1l-9.4-11.9" fill="#B6F5FF" p-id="5513"></path><path d="M726.539 238.577l10.95-8.724 9.41 11.812-10.951 8.723z" fill="#0F13AE" p-id="5514"></path></svg>