<?xml version="1.0" standalone="no"?><!DOCTYPE svg PUBLIC "-//W3C//DTD SVG 1.1//EN" "http://www.w3.org/Graphics/SVG/1.1/DTD/svg11.dtd"><svg t="1644807655915" class="icon" viewBox="0 0 1024 1024" version="1.1" xmlns="http://www.w3.org/2000/svg" p-id="7947" xmlns:xlink="http://www.w3.org/1999/xlink" width="200" height="200"><defs><style type="text/css"></style></defs><path d="M304 304h416v416h-416z" fill="#E0EBFE" p-id="7948"></path><path d="M304 736h416a16 16 0 0 0 16-16v-416a16 16 0 0 0-16-16h-416a16 16 0 0 0-16 16v416a16 16 0 0 0 16 16z m16-416h384v384H320V320z" fill="#5465CF" p-id="7949"></path><path d="M1008 288a16 16 0 1 0 0-32H864V192a32 32 0 0 0-32-32h-64V16a16 16 0 1 0-32 0V160h-128V16a16 16 0 1 0-32 0V160h-128V16a16 16 0 1 0-32 0V160H288V16a16 16 0 1 0-32 0V160H192a32 32 0 0 0-32 32v64H16a16 16 0 1 0 0 32H160v128H16a16 16 0 1 0 0 32H160v128H16a16 16 0 1 0 0 32H160v128H16a16 16 0 1 0 0 32H160v64a32 32 0 0 0 32 32h64v144a16 16 0 1 0 32 0V864h128v144a16 16 0 1 0 32 0V864h128v144a16 16 0 1 0 32 0V864h128v144a16 16 0 1 0 32 0V864h64a32 32 0 0 0 32-32v-64h144a16 16 0 1 0 0-32H864v-128h144a16 16 0 1 0 0-32H864v-128h144a16 16 0 1 0 0-32H864V288h144zM800 800H224V224h576v576z" fill="#5465CF" p-id="7950"></path></svg>