<?xml version="1.0" standalone="no"?><!DOCTYPE svg PUBLIC "-//W3C//DTD SVG 1.1//EN" "http://www.w3.org/Graphics/SVG/1.1/DTD/svg11.dtd"><svg t="1644807598621" class="icon" viewBox="0 0 1024 1024" version="1.1" xmlns="http://www.w3.org/2000/svg" p-id="6679" xmlns:xlink="http://www.w3.org/1999/xlink" width="200" height="200"><defs><style type="text/css"></style></defs><path d="M1024 544c0 265.088-214.944 480-480 480h-64C214.88 1024 0 809.088 0 544v-64C0 214.912 214.88 0 480 0h64c265.056 0 480 214.912 480 480v64z" fill="#FF4D4D" p-id="6680"></path><path d="M534.496 484.256a22.496 22.496 0 1 1-44.992 0 22.496 22.496 0 0 1 44.992 0z" fill="#FFFFFF" p-id="6681"></path><path d="M736.96 733.248a22.496 22.496 0 0 1-22.336-20.032l-36.096-326.432a67.456 67.456 0 0 0-67.104-60.032h-198.88a67.456 67.456 0 0 0-67.104 60.032L309.344 713.216a22.528 22.528 0 0 1-24.832 19.904 22.528 22.528 0 0 1-19.904-24.832l36.128-326.432a112.384 112.384 0 0 1 111.808-100.096h198.88a112.384 112.384 0 0 1 111.808 100.064l36.128 326.464a22.528 22.528 0 0 1-22.4 24.96z" fill="#FFFFFF" p-id="6682"></path><path d="M624.512 484.256A112.64 112.64 0 0 0 512 371.744a112.64 112.64 0 0 0-112.512 112.512 112.736 112.736 0 0 0 90.016 110.24v116.256a22.496 22.496 0 1 0 45.024 0v-116.256a112.736 112.736 0 0 0 89.984-110.24zM512 551.744c-37.216 0-67.488-30.272-67.488-67.488s30.272-67.488 67.488-67.488c37.248 0 67.52 30.272 67.52 67.488s-30.304 67.488-67.52 67.488zM512 214.24a22.496 22.496 0 0 1-22.496-22.496V122.752a22.496 22.496 0 1 1 45.024 0v68.992a22.528 22.528 0 0 1-22.528 22.496zM376.992 236.736a22.432 22.432 0 0 1-15.904-6.592L316.064 185.152a22.528 22.528 0 0 1 31.808-31.808l44.992 44.992a22.528 22.528 0 0 1-15.872 38.4zM647.008 236.736a22.528 22.528 0 0 1-15.904-38.4l44.992-44.992a22.464 22.464 0 1 1 31.808 31.808l-44.992 44.992a22.368 22.368 0 0 1-15.904 6.592z" fill="#FFFFFF" p-id="6683"></path><path d="M827.008 868.256H196.992a22.464 22.464 0 0 1-22.496-22.496v-44.992a112.64 112.64 0 0 1 112.512-112.512h450.016a112.64 112.64 0 0 1 112.512 112.512v44.992a22.56 22.56 0 0 1-22.528 22.496zM219.488 823.264h585.024v-22.496a67.552 67.552 0 0 0-67.488-67.488H286.976a67.552 67.552 0 0 0-67.488 67.488v22.496z" fill="#FFFFFF" p-id="6684"></path></svg>